<?xml version="1.0" encoding="UTF-8" standalone="no"?>
<svg width="256" height="256" xmlns="http://www.w3.org/2000/svg">
    <g fill="none" stroke="#333" stroke-linecap="round" stroke-linejoin="round" stroke-miterlimit="4" transform="matrix(2.5 0 0 2.5 -4150 672.28)">
      <!-- 白色书页 -->
      <path fill="#fff" stroke="none" d="M1669.766-234.029c-3.483 0-6.307 3.458-6.307 7.724 0 4.266 2.556 7.19 6.307 7.724-3.483 0-6.307 3.458-6.307 7.724 0 4.266 2.556 7.19 6.307 7.724-3.483 0-6.307 3.458-6.307 7.724 0 4.266 2.556 7.19 6.307 7.724l46.907 10.304 42.144-23.718c-3.483 0-6.307-3.458-6.307-7.724 0-4.266 2.556-7.19 6.307-7.724-3.483 0-6.307-3.458-6.307-7.724 0-4.266 2.556-7.19 6.307-7.724-3.483 0-6.307-3.458-6.307-7.724 0-4.266 2.556-7.19 6.307-7.724Z"/>
      <!-- 书脊装饰 -->
      <path stroke-width="0.5" stroke="#ddd" d="M1716.673-223.725c-3.483 0-6.307 3.458-6.307 7.724 0 4.266 2.556 7.19 6.307 7.724-3.483 0-6.307 3.458-6.307 7.724 0 4.266 2.556 7.19 6.307 7.724-3.483 0-6.307 3.458-6.307 7.724 0 4.266 2.556 7.19 6.307 7.724
      m42.145-70.018c-3.483 0-6.307 3.458-6.307 7.724 0 4.266 2.556 7.19 6.307 7.724-3.483 0-6.307 3.458-6.307 7.724 0 4.266 2.556 7.19 6.307 7.724-3.483 0-6.307 3.458-6.307 7.724 0 4.266 2.556 7.19 6.307 7.724"/>
  
      <!-- 书本描边 -->
      <g stroke-width="2.999">
        <path d="m1669.766-203.133c-3.483 0-6.307 3.458-6.307 7.724 0 4.266 2.556 7.19 6.307 7.724l46.907 10.304 42.144-23.718"/>
        <path d="m1669.766-218.581c-3.483 0-6.307 3.458-6.307 7.724 0 4.266 2.556 7.19 6.307 7.724l46.907 10.304 42.144-23.718"/>
        <path d="m1669.766-234.029c-3.483 0-6.307 3.458-6.307 7.724 0 4.266 2.556 7.19 6.307 7.724l22.881 5.026m13.694 3.008 10.332 2.27 42.144-23.718"/>
      </g>
  
      <!-- 封面外框 -->
      <path stroke-width="11.335" fill="#333" 
            d="M6470.215-924.797l-163.58 89.642 181.58 38.944 159.285-89.643z"
            transform="translate(0 -13.061) scale(.264583)"/>
  
      <!-- 封面标题 -->
      <path fill="#f29d16" stroke-width="1.115" d="m1710.783-249.624-10.863 6.148 26.168 5.748 10.863-6.148z"/>
      <text font-family="Arial" font-size="0.6" font-weight="bold" fill="red" stroke="red" stroke-width="0.01" transform="matrix(17.445 3.832 10.863 -6.148 1718.435-243.676)"><tspan x="0" y="0" text-anchor="middle" dominant-baseline="central">EB</tspan></text>
  
      <!-- 书签 -->
      <path fill="#f49f16" stroke="none" d="m1696.263-221.509v15.686l3.496-2.173 3.874 4.252v-16.536l-7.37-1.228z"/>
    </g>
  </svg>