<?xml version="1.0" encoding="UTF-8" standalone="no"?>
<svg width="144" height="144" xmlns="http://www.w3.org/2000/svg"
    xmlns:inkscape="http://www.inkscape.org/namespaces/inkscape"
    xmlns:sodipodi="http://sodipodi.sourceforge.net/DTD/sodipodi-0.dtd" version="1.1">

    <metadata id="metadata5">image/svg+xml</metadata>
    <g>
        <title>Layer 1</title>
        <g display="inline" id="layer1" />
        <g stroke="null" id="layer2">
            <!-- 定义滤镜 -->
            <filter id="whiteGlow" x="-20%" y="-20%" width="140%" height="140%">
                <feGaussianBlur in="SourceGraphic" stdDeviation="5" result="blur" />
                <feComponentTransfer in="blur" result="whiteBlur">
                    <feColorMatrix type="matrix" values="0 0 0 0 1 0 0 0 0 1 0 0 0 0 1 0 0 0 1 0" />
                </feComponentTransfer>
                <feMerge>
                    <feMergeNode in="whiteBlur" />
                    <feMergeNode in="SourceGraphic" />
                </feMerge>
            </filter>

            <!-- 应用滤镜的图层 -->
            <g stroke="null" transform="matrix(1.18162 0 0 1.29989 -1951.64 367.599)" id="g4516"
                filter="url(#whiteGlow)">
                <path stroke="#ffffff" stroke-dashoffset="0" stroke-miterlimit="4"
                    stroke-linejoin="round" stroke-linecap="round" stroke-width="2.999" fill="none"
                    d="m1671.23172,-212.97336c-3.4831,-0.00006 -6.3067,3.45812 -6.3067,7.72402c0,4.2659 2.5563,7.18954 6.3067,7.72402l46.9069,10.30393l42.1444,-23.718"
                    id="path4513-6" />
                <path stroke="#ffffff" stroke-dashoffset="0" stroke-miterlimit="4"
                    stroke-linejoin="round" stroke-linecap="round" stroke-width="2.999" fill="none"
                    d="m1671.23172,-228.4214c-3.4831,-0.00006 -6.3067,3.45812 -6.3067,7.72402c0,4.2659 2.5563,7.18954 6.3067,7.72402l46.9069,10.30393l42.1444,-23.718"
                    id="path4513-6-7" />
                <path stroke="#ffffff" stroke-dashoffset="0" stroke-miterlimit="4"
                    stroke-linejoin="round" stroke-linecap="round" stroke-width="2.999" fill="none"
                    d="m1671.23172,-243.86944c-3.4831,-0.00006 -6.3067,3.45812 -6.3067,7.72402c0,4.2659 2.5563,7.18954 6.3067,7.72402l22.8809,5.02619m13.6936,3.00805l10.3324,2.26969l42.1444,-23.718"
                    id="path4513-6-7-5-3" />
                <path stroke="#ffffff" stroke-dashoffset="0" stroke-miterlimit="4"
                    stroke-linejoin="round" stroke-linecap="round" stroke-width="11.3348"
                    fill="#ffffff"
                    d="m6475.75304,-961.98987l-163.5797,89.64226l181.5797,38.94368l159.2852,-89.64258l-177.2852,-38.94336z"
                    id="path4513-6-7-5-3-5"
                    transform="translate(2.27374e-13 -13.0608) scale(0.264583 0.264583)" />
                <path stroke="#ffffff" stroke-dashoffset="0" stroke-miterlimit="4"
                    stroke-linejoin="round" stroke-linecap="round" stroke-width="1.11535"
                      id="path4513-6-7-5-3-5-2" />
                <path stroke="null" stroke-width="0.26458px" fill-rule="evenodd" 
                    id="path4508" />
            </g>
        </g>
        <g stroke="null" id="layer3">
            <g stroke="null" transform="matrix(1.18162 0 0 1.29989 -1951.64 367.599)" id="g4516" >
                <path stroke="#000000" stroke-dashoffset="0" stroke-miterlimit="4"
                    stroke-linejoin="round" stroke-linecap="round" stroke-width="2.999" fill="none"
                    d="m1671.23172,-212.97336c-3.4831,-0.00006 -6.3067,3.45812 -6.3067,7.72402c0,4.2659 2.5563,7.18954 6.3067,7.72402l46.9069,10.30393l42.1444,-23.718"
                    id="path4513-6" />
                <path stroke="#000000" stroke-dashoffset="0" stroke-miterlimit="4"
                    stroke-linejoin="round" stroke-linecap="round" stroke-width="2.999" fill="none"
                    d="m1671.23172,-228.4214c-3.4831,-0.00006 -6.3067,3.45812 -6.3067,7.72402c0,4.2659 2.5563,7.18954 6.3067,7.72402l46.9069,10.30393l42.1444,-23.718"
                    id="path4513-6-7" />
                <path stroke="#000000" stroke-dashoffset="0" stroke-miterlimit="4"
                    stroke-linejoin="round" stroke-linecap="round" stroke-width="2.999" fill="none"
                    d="m1671.23172,-243.86944c-3.4831,-0.00006 -6.3067,3.45812 -6.3067,7.72402c0,4.2659 2.5563,7.18954 6.3067,7.72402l22.8809,5.02619m13.6936,3.00805l10.3324,2.26969l42.1444,-23.718"
                    id="path4513-6-7-5-3" />
                <path stroke="#000000" stroke-dashoffset="0" stroke-miterlimit="4"
                    stroke-linejoin="round" stroke-linecap="round" stroke-width="11.3348"
                    fill="#000000"
                    d="m6475.75304,-961.98987l-163.5797,89.64226l181.5797,38.94368l159.2852,-89.64258l-177.2852,-38.94336z"
                    id="path4513-6-7-5-3-5"
                    transform="translate(2.27374e-13 -13.0608) scale(0.264583 0.264583)" />
                <path stroke="#000000" stroke-dashoffset="0" stroke-miterlimit="4"
                    stroke-linejoin="round" stroke-linecap="round" stroke-width="1.11535"
                    fill="#f29d16"
                    d="m1716.60912,-258.5065l-10.863,6.14815l17.4451,3.83204l10.8628,-6.14815l-17.4449,-3.83204z"
                    id="path4513-6-7-5-3-5-2" />
                <path stroke="null" stroke-width="0.26458px" fill-rule="evenodd" fill="#f49f16"
                    d="m1697.72792,-231.35011l0,15.68601l3.4963,-2.17336l3.8743,4.25223l0,-16.53646l-7.3706,-1.22842z"
                    id="path4508" />
            </g>
        </g>
    </g>
</svg>